<?xml version="1.0" standalone="no"?>
<!DOCTYPE svg PUBLIC "-//W3C//DTD SVG 20010904//EN"
 "http://www.w3.org/TR/2001/REC-SVG-20010904/DTD/svg10.dtd">
<svg version="1.0" xmlns="http://www.w3.org/2000/svg"
 width="368.000000pt" height="104.000000pt" viewBox="0 0 368.000000 104.000000"
 preserveAspectRatio="xMidYMid meet">

<g transform="translate(0.000000,104.000000) scale(0.100000,-0.100000)"
fill="#000000" stroke="none">
<path d="M1240 724 c-10 -3 -15 -19 -16 -52 -2 -65 -115 -366 -151 -404 l-27
-28 95 0 95 0 -4 35 -4 35 70 0 c74 0 86 -8 75 -49 -5 -20 -2 -21 86 -21 71 0
90 3 85 13 -4 6 -18 28 -30 48 -29 47 -146 379 -141 400 4 13 -6 18 -41 23
-47 6 -67 6 -92 0z m89 -296 c1 -5 -10 -8 -24 -8 -28 0 -30 4 -13 51 l11 33
13 -34 c7 -19 13 -38 13 -42z"/>
<path d="M1568 725 c-3 -4 1 -23 9 -43 22 -54 23 -366 0 -410 l-15 -32 94 0
94 0 -14 23 c-8 12 -16 63 -20 117 l-6 95 55 -85 c54 -83 59 -96 56 -132 -2
-16 8 -18 89 -18 l91 0 -16 30 c-20 39 -21 356 -1 412 l13 36 -86 4 c-47 3
-89 3 -93 1 -3 -2 0 -16 7 -31 12 -25 31 -192 22 -192 -12 0 -107 171 -107
194 0 25 -2 26 -62 26 -35 0 -72 3 -83 6 -11 3 -23 2 -27 -1z"/>
<path d="M2372 722 c-70 -21 -126 -105 -138 -208 -14 -130 36 -233 131 -270
125 -47 237 34 252 183 3 32 10 66 15 76 8 17 2 17 -98 15 l-106 -3 -19 -60
c-10 -32 -17 -60 -16 -62 2 -1 22 3 45 9 51 13 60 7 38 -27 -23 -35 -69 -34
-92 1 -56 84 5 262 76 224 14 -8 20 -18 17 -30 -11 -43 84 -24 98 20 28 90
-87 165 -203 132z"/>
<path d="M2655 720 c-2 -3 2 -24 10 -46 20 -56 20 -352 1 -399 l-15 -35 91 0
c82 0 89 2 83 18 -28 67 -32 382 -5 432 6 12 10 23 8 25 -7 6 -169 11 -173 5z"/>
<path d="M415 703 c17 -40 26 -133 23 -221 -3 -79 -7 -96 -26 -114 -18 -18
-26 -20 -49 -12 -23 8 -28 15 -27 42 2 30 0 32 -30 32 -69 0 -101 -86 -54
-145 43 -55 129 -70 204 -36 81 37 101 91 106 286 3 83 9 149 17 163 l12 22
-92 0 c-83 0 -90 -2 -84 -17z"/>
<path d="M614 693 c9 -18 15 -75 18 -163 5 -155 21 -204 81 -257 86 -76 213
-47 269 60 18 36 23 65 28 192 4 89 11 159 18 173 l13 22 -92 0 c-83 0 -90 -2
-83 -17 5 -10 10 -84 12 -165 3 -139 2 -148 -18 -168 -30 -30 -61 -22 -82 20
-23 46 -25 243 -4 295 l15 35 -95 0 -95 0 15 -27z"/>
<path d="M2858 688 c14 -27 17 -65 17 -220 0 -136 -3 -190 -12 -199 -7 -7 -13
-17 -13 -21 0 -4 78 -8 173 -8 l172 0 12 48 c7 26 15 58 19 71 6 21 5 23 -12
16 -25 -12 -197 -23 -208 -14 -13 11 -3 310 12 337 l13 22 -95 0 -94 0 16 -32z"/>
</g>
</svg>
